<svg id="RegionalsFinal_Image" data-name="RegionalsFinal Image" xmlns="http://www.w3.org/2000/svg" viewBox="0 0 292.77 288"><defs><style>.cls-1{opacity:0.5;}.cls-2{fill:#fff;}</style></defs><title>Regionals</title><g class="cls-1"><path d="M146.76,288.24h-.24a5.19,5.19,0,0,0-.5-.31,359.34,359.34,0,0,1-63-37.59A2.34,2.34,0,0,0,81.3,250c-5.15,1.3-10.3,2.61-15.41,4.06-3.76,1.06-7.46,2.34-11.33,3.57q-4.52-20.14-9-40.28l2.09-.84c-.32-.44-.59-.78-.83-1.14-2.46-3.69-5.1-7.27-7.34-11.09a69.88,69.88,0,0,1-9.92-36.51c.19-52.15.11-104.31.12-156.46,0-1.74,0-1.73,1.74-2C46.08,7.29,60.77,5.29,75.55,3.89S105.22,1.59,120.08,1C128.51.64,137,.62,145.39.45a7.48,7.48,0,0,0,1.13-.21h.24a10.81,10.81,0,0,0,1.37.21c10.19.25,20.39.34,30.58.75,9.55.39,19.1.9,28.62,1.75,14.77,1.31,29.55,2.67,44.22,5,4,.62,8,1.13,12,1.7V170.05a60.67,60.67,0,0,1-2.24,16.46c-3,10.7-8.43,20.15-15.06,29-.26.34-.5.69-.81,1.11l2.2.75c-2.8,13.49-5.57,26.89-8.37,40.35-.7-.21-1.22-.39-1.76-.53q-13.18-3.31-26.38-6.64a2.12,2.12,0,0,0-2,.46,358,358,0,0,1-61.67,36.77A6.22,6.22,0,0,0,146.76,288.24Zm95.71-141.07c1.35-5.5,4.12-9.42,7.65-10.8,2.75,6.36-1.51,14.18-6.7,17.08l-.52-1.1c-.16,3-.3,5.72-.46,8.65,3.19-4.42,7.54-6.17,12.79-6.39a4.62,4.62,0,0,1-.08.77,20.36,20.36,0,0,1-.72,2c-2.38,5.17-6.73,7.61-12.06,8.65a1.83,1.83,0,0,0-1.68,1.47c-5.3,18.56-17.34,30.8-35.26,37.5-1.17.44-2.36.8-3.82,1.29.57.14.83.23,1.1.27a319.67,319.67,0,0,1,36.71,8.24,1.11,1.11,0,0,0,1.41-.45,100.3,100.3,0,0,0,10.53-16.14c4.42-8.62,7.22-17.68,7.22-27.44q0-45.42,0-90.84c0-.31,0-.63,0-1a8.32,8.32,0,0,0-.93-.22c-11.54-1.48-23.07-3-34.62-4.41-15.62-1.88-31.31-2.83-47-3.48q-20.91-.87-41.87-.46-24.78.47-49.47,2.56c-8.17.68-16.33,1.47-24.47,2.44S44.1,77.6,36.06,78.65c-1.21.16-1.55.54-1.55,1.76q0,45.12,0,90.24a53,53,0,0,0,2,14.21c3,11,8.8,20.58,15.77,29.5.55.7,1.06.45,1.69.3,9.1-2.14,18.19-4.33,27.31-6.37,3.68-.83,7.43-1.35,11.41-2l-1.17-.48c-2.49-.95-5.07-1.74-7.47-2.9-15.14-7.26-25.33-18.79-29.92-35.05A2.14,2.14,0,0,0,52.17,166c-4.61-.86-8.56-2.9-11.06-7.06a39.17,39.17,0,0,1-1.92-4.34c5.58.23,9.94,2,13.09,6.39l-.46-8.65-.62,1.22c-6.4-4.42-9-11.91-6.5-17.29,4.18,2.56,6.91,6.07,7.52,11,.74-3.11,1.49-6.17,2.17-9.24.07-.28-.21-.69-.41-1a42,42,0,0,1-3.58-4.9,9.87,9.87,0,0,1-.34-8.33,12.48,12.48,0,0,1,6.3,8.82,9,9,0,0,0,.46-.88,31.31,31.31,0,0,1,1.19-3.5A14.59,14.59,0,0,1,65.43,121a9.7,9.7,0,0,1,5.22-.87,2.15,2.15,0,0,1,0,.45c-2,5-5.58,8-11,8.49-.43,0-1.11.16-1.23.43a44.73,44.73,0,0,0-1.89,5c-.39,1.34-.3,2.69-1.3,4-.86,1.13-.8,3-1.15,4.48l.29.13c2.06-5.84,5.75-9.84,12.18-11-.07.55-.09.9-.17,1.25-1.44,6.2-5.12,10.17-11.47,11.42-.91.18-1.27.53-1.29,1.47-.06,2.55-.22,5.11-.32,7.66a5.58,5.58,0,0,0,.13.89c3-6.06,6.4-9.33,10.1-9.74,0,.43,0,.86,0,1.28-.41,5.92-3.25,10.19-8.7,12.6-.93.42-1.2.85-.93,1.78,1.09,3.76,2.15,7.52,3.24,11.27,0,.15.2.26.49.63a18.16,18.16,0,0,1,.77-9.73,14.6,14.6,0,0,1,6-7.28,16.53,16.53,0,0,1,.89,8.44c-.71,4.53-3.45,7.7-7.06,10.18,1.14,3.1,5.18,9.44,6.48,10.22-2.13-7.71.57-13.69,3.77-16.63,4.63,7,4.72,13.89-.46,20.71A46.57,46.57,0,0,0,78.65,197c-4.62-6.35-6-13-2.55-20.57,7.47,6.26,9.81,13.61,6,22.6a49.58,49.58,0,0,0,12.72,4.8,28.11,28.11,0,0,0,7.78,1.06c8.9-.57,17.77-1.5,26.65-2.24a1.35,1.35,0,0,0,1.41-1.11c1-3.16,2-6.32,3.11-9.45a1.81,1.81,0,0,0-.53-2.18,83.68,83.68,0,0,1-16-23.08,5.21,5.21,0,0,0-4.9-3.53A34.46,34.46,0,0,1,81.84,129c0-4.76,0-9.52,0-14.28,0-4.11,2.46-6.55,6.59-6.55H105c.46,0,.92,0,1.48-.07-.2-2.85-.4-5.56-.57-8.27-.15-2.47,0-2.66,2.57-2.66h70.07c2.6,0,5.2,0,7.8,0,1.46,0,1.94.52,1.86,2s-.23,3.19-.34,4.79c-.09,1.3-.18,2.6-.29,4h1.49c5.6,0,11.2,0,16.8,0a5.94,5.94,0,0,1,6.12,6.15c0,5.12.13,10.25,0,15.36a35.18,35.18,0,0,1-32.54,34.08,1.85,1.85,0,0,0-1.35.82,90.82,90.82,0,0,1-17.51,25.77,1.43,1.43,0,0,0-.34,1.69c1.07,3.14,2.13,6.29,3.1,9.46a1.61,1.61,0,0,0,1.73,1.33c7.33.56,14.66,1.21,22,1.81a41.73,41.73,0,0,0,7.63.4,49.68,49.68,0,0,0,14.58-4.17c1.15-.51,2.27-1.1,3.38-1.63-3.32-9.73-1-18.31,6-22.42a17.36,17.36,0,0,1,1.7,10.57,21.76,21.76,0,0,1-4.58,10c3.31-1.66,9.44-6.62,11-8.79a16.38,16.38,0,0,1-3.83-10.2,17.58,17.58,0,0,1,3.55-10.47c4.41,5,5.31,10.62,3.6,16.83l.43.14,6.38-10.31c-3.27-2.2-5.71-4.73-6.84-8.27a16.05,16.05,0,0,1,.41-10.58c6,4.26,7.74,10,6.95,16.85A51,51,0,0,0,241,160.55a1.23,1.23,0,0,0-.89-1.59c-5.5-2.43-8.37-6.71-8.78-12.68,0-.41,0-.83,0-1.43,5.14,1.63,8.25,5,10.17,9.78,0-2.83-.15-5.57-.24-8.32,0-1-.47-1.4-1.45-1.58A13.44,13.44,0,0,1,230.7,139a14.34,14.34,0,0,1-2.47-6.92c6.47,1.2,10.17,5.2,12.36,11a12.94,12.94,0,0,0-1-4.54,6.06,6.06,0,0,1-1.13-2.55c-.08-2.19-1-4.08-1.81-6-.27-.66-.66-.81-1.33-.94a21.92,21.92,0,0,1-5-1.35c-3.19-1.49-5.14-4.16-6.33-7.55a8.17,8.17,0,0,1,1-.08c5.54.19,9.64,3.88,11.88,8.44a2.33,2.33,0,0,1,.14.33c.37,1.23.73,2.47,1.09,3.71l.38-.06c.72-3.82,2.88-6.56,6.39-8.67a31.74,31.74,0,0,1,.54,3.5c.14,4-1.75,7-4.47,9.73a1.68,1.68,0,0,0-.51,1.26C241,141.24,241.76,144.22,242.47,147.17Zm-90.85,55c-1.19-3.67-2.29-7.08-3.45-10.48a1.36,1.36,0,0,0-1-.59c-.87-.08-1.76.05-2.63-.07-.37,0-.68-.48-1-.75a6.71,6.71,0,0,1,1.05-.88,1.34,1.34,0,0,1,.82,0,2.7,2.7,0,0,0,2.59-1.08,93.44,93.44,0,0,0,11.11-14.12,80.54,80.54,0,0,0,12.36-34.34c1-8.94,1.45-17.93,2.14-26.9.29-3.74.54-7.48.82-11.3h6.4c0,.49-.06.89-.08,1.28-.75,10.37-1.53,20.74-2.24,31.11a85.62,85.62,0,0,1-24.15,54.29,5.35,5.35,0,0,0-.62,1.29,20.14,20.14,0,0,0,2.42-.26,3.82,3.82,0,0,0,1.76-.74,87,87,0,0,0,21.45-36.54,92.46,92.46,0,0,0,3.49-20.76c.67-10.3,1.47-20.58,2.21-30.87a3.19,3.19,0,0,0-.06-.55H108.66c0,.46,0,.82.06,1.17.76,10.61,1.5,21.22,2.28,31.83a88.37,88.37,0,0,0,24.39,55.38,3,3,0,0,0,2.59,1.13c.72-.05,1.86-.35,1.81.9s-1.15.79-1.81.74c-1-.06-1.38.35-1.66,1.25-.93,3-1.94,6-2.91,9a8.65,8.65,0,0,0-.19.87ZM34.54,38.46a767.06,767.06,0,0,1,224,0V14c-.34-.08-.6-.16-.88-.2q-28.9-4.3-58.06-6.41-26.88-1.92-53.83-1.9-27.84,0-55.62,2.14c-17.83,1.38-35.6,3.3-53.28,6-2.33.36-2.33.35-2.33,2.66q0,10.32,0,20.64Zm54.3,209.91c.5.4.79.66,1.11.88a361.11,361.11,0,0,0,55.59,33,2.06,2.06,0,0,0,2,0,361.85,361.85,0,0,0,54.72-32.36c.31-.22.6-.47,1.15-.9C165.13,242.3,127.14,241.17,88.84,248.37ZM34.54,74.3a733,733,0,0,1,224,0V68.74c-.28,0-.51-.11-.74-.14C249.88,67.49,242,66.22,234,65.33q-16.2-1.8-32.47-3.1c-8.53-.69-17.08-1.26-25.62-1.51-14.07-.41-28.14-.66-42.22-.43-15.09.25-30.14,1.06-45.17,2.16-11,.81-22,2.12-32.93,3.37-6.7.77-13.38,1.84-20.07,2.76-.53.08-1,.07-1,.85C34.56,70.94,34.54,72.46,34.54,74.3Zm56.44,43v1.41c0,3.32,0,6.63,0,10a24.38,24.38,0,0,0,2.94,12.1c3.34,6.1,8.09,10.55,15,12.23.94.23,1.92.29,3.12.46-4-11.91-3.9-24.09-4.95-36.15ZM182.25,153l.22.43a33.47,33.47,0,0,0,5.78-1.68c8.23-4,13.17-10.61,14.29-19.66.59-4.77.25-9.66.31-14.49a1.26,1.26,0,0,0-.17-.44H186.93c-.44,6.07-.86,12.09-1.33,18.09A88.54,88.54,0,0,1,182.25,153Zm4.84-38.52h16.4c1.67,0,2,.37,2,2,0,4.28,0,8.56,0,12.84a25.84,25.84,0,0,1-3.25,12.77c-4.5,7.94-10.77,13.42-20.4,13.93-.24,0-.61.16-.68.34-.53,1.34-1,2.71-1.55,4.26,1.15-.14,2.06-.23,3-.36,13.54-1.93,25-13.68,26.22-27.29.54-6.36.25-12.78.29-19.18a3,3,0,0,0-2.31-2.74,5.7,5.7,0,0,0-1.3-.15q-8.52,0-17,0c-.48,0-1.1-.19-1.15.65S187.18,113.38,187.09,114.46Zm-80.22,0c-.07-.9-.19-1.65-.18-2.4s-.3-1.17-1.2-1.16c-5.72,0-11.44,0-17.15,0a3.21,3.21,0,0,0-3.56,3.58c0,5-.06,10,0,15a31.71,31.71,0,0,0,25.77,30.7c1.22.23,2.48.3,3.89.47-.5-1.43-1-2.58-1.3-3.76-.21-.71-.64-.8-1.31-.9a25.84,25.84,0,0,1-6.19-1.23c-10.31-4.35-16-12.31-17.17-23.34-.51-5-.17-10.14-.19-15.22,0-1.31.48-1.74,1.86-1.74h16.73Zm10.48,105.33a7.59,7.59,0,0,0-3.58-3.74,13.25,13.25,0,0,0-12.23-.27A10.28,10.28,0,0,0,95.78,228a11.16,11.16,0,0,0,10.51,8c6.46.28,10.88-3.58,12.19-7.63a9.25,9.25,0,0,0,.35-4.66l-14.4,1.57.51,3.63,8.83-1a6.58,6.58,0,0,1-5.13,4.29c-5.31,1.13-10-3.33-9-8.45s7.92-7.45,12.19-4.07a2.07,2.07,0,0,0,1.22.52C114.49,220.14,115.88,220,117.35,219.79Zm42.57-7.16c-.25,7-.49,13.78-.74,20.65,1.09.07,2,.12,3,.22.76.08,1.06-.19,1.08-1,.09-2.87.24-5.74.38-8.61.07-1.58.17-3.15.27-5,.35.54.56.82.72,1.11,1.9,3.51,4,6.92,5.62,10.56,1.21,2.78,2.83,4.21,5.87,3.84l.48-.08c.61-6.77,1.21-13.55,1.83-20.49l-4.23-.33c-.38,4.88-.74,9.59-1.11,14.3a3.38,3.38,0,0,1-.89-1.16c-2.31-4.29-4.61-8.58-7-12.85-.2-.37-.61-.84-1-.88C162.88,212.72,161.48,212.7,159.92,212.63Zm-16.31,21c.19,0,.67,0,1.14-.06,8.14-.65,12.74-10,8.25-16.68a11.71,11.71,0,0,0-12.16-4.56c-4.11.89-7.18,3.1-8.49,7.23C130.1,226.61,135.55,233.55,143.61,233.58Zm-85.09-9.53,5.37,20.09,3.88-1L66,235.91c2.31,1.68,4.39,3.48,6.5,5.25.28.24.7.57,1,.52,1.45-.26,2.88-.62,4.56-1l-7.29-6.12,1.17-.76a6.19,6.19,0,0,0,2.6-7.63A5.82,5.82,0,0,0,68,222.05C64.84,222.47,61.76,223.35,58.52,224.05Zm142.69,13.5c-.12-.55-.18-1-.29-1.38-1.69-6.08-3.45-12.13-5-18.23-.45-1.72-1.14-2.58-3-2.59a1.62,1.62,0,0,0-1.72.83c-3,5-6,10-8.94,15-.67,1.12-1.29,2.26-2,3.54,1.45.17,2.71.36,4,.42.29,0,.69-.33.88-.62.74-1.13,1.45-2.29,2.11-3.48a1.16,1.16,0,0,1,1.35-.67c2,.29,4,.5,6.05.83a1.48,1.48,0,0,1,.9.88c.44,1.32.75,2.68,1.17,4a1.24,1.24,0,0,0,.68.79C198.58,237.18,199.83,237.33,201.21,237.55ZM218.87,235a18.34,18.34,0,0,0,.29,2.92c1.07,4,6.11,6.16,10.12,4.54,3.46-1.4,6-7,1.69-10.47-1-.82-2.15-1.52-3.21-2.3-.48-.35-1.11-.67-1.33-1.16a2.92,2.92,0,0,1-.24-2.09,2.4,2.4,0,0,1,1.66-1.08c1.64-.22,2.43.63,2.83,2.79l4.26,1.08c0-.73,0-1.28,0-1.83-.39-4.22-5.41-7-9.66-5.36a5.53,5.53,0,0,0-2.64,8.32,11.65,11.65,0,0,0,2.39,2.31c1,.8,2.14,1.42,3.11,2.24a2.37,2.37,0,0,1,.61,2.94,2.4,2.4,0,0,1-2.41,1.44c-2.11,0-3-.82-3.37-3.37ZM77.58,219.62c1.42,6.83,2.79,13.47,4.19,20.19l11.37-2.15-.62-3.58L85,235.42l-.88-4.55,7.29-1.38-.62-3.58-7.38,1.31-.93-4.8L90.3,221l-.61-3.62ZM215.2,240.14c.26-1.22.5-2.33.75-3.55l-6.5-1.35c1.06-5.57,2.1-11.07,3.17-16.67l-4.19-.74c-1.22,6.84-2.42,13.54-3.63,20.29ZM169,54.19V36.79h-2.89V47.15L154.5,36.77c-.28,4.21-.28,4.21,2.58,6.76l.9.8Zm69.06,2.46c1.57-.62,2.84-1.18,4.15-1.6a2,2,0,0,1,1.48.17c1.08.62,2.09,1.38,3.39,2.27,0-1.64-.05-3,0-4.26a2,2,0,0,1,.63-1.25c1.08-.93,2.25-1.77,3.56-2.79-1.34-.32-2.48-.67-3.65-.84A1.76,1.76,0,0,1,246,46.78c-.24-1.06-.63-2.08-1-3.35-.91,1.23-1.71,2.22-2.39,3.28a2.12,2.12,0,0,1-2,1c-1.21,0-2.41.11-3.85.18.91,1.19,1.62,2.14,2.38,3.06a1.54,1.54,0,0,1,.3,1.74C239,53.89,238.59,55.12,238.07,56.65Zm-11-.91c0-1.59-.06-2.89,0-4.19a2.22,2.22,0,0,1,.68-1.37c1.06-.93,2.22-1.74,3.52-2.75-1.39-.33-2.5-.66-3.63-.83A1.74,1.74,0,0,1,226,45.05c-.24-1.07-.63-2.11-1-3.39-.88,1.2-1.67,2.14-2.31,3.18A2.25,2.25,0,0,1,220.52,46c-1.18,0-2.35.11-3.75.19.8,1,1.39,1.94,2.12,2.71a2,2,0,0,1,.41,2.47c-.47,1.06-.76,2.2-1.2,3.56,1.52-.62,2.76-1.18,4-1.59a2.25,2.25,0,0,1,1.61.18C224.82,54.1,225.79,54.85,227.09,55.74ZM56.14,48.11c-1.51-.07-2.77-.16-4-.18a1.49,1.49,0,0,1-1.48-1c-.52-1.1-1.14-2.16-1.82-3.42-.61,1.28-1.19,2.32-1.62,3.42a2.24,2.24,0,0,1-2,1.59c-1.16.17-2.3.53-3.64.85,1.1,1,2.08,1.81,3,2.73A2.06,2.06,0,0,1,45,53.56c-.1,1.32-.34,2.62-.57,4.2,1.42-.9,2.54-1.66,3.73-2.3a1.86,1.86,0,0,1,1.39-.1c1.21.44,2.38,1,3.77,1.62-.22-1.37-.37-2.51-.6-3.64a2.15,2.15,0,0,1,.66-2.23C54.3,50.24,55.1,49.25,56.14,48.11Zm17.18,7.15c-.23-1.43-.39-2.65-.64-3.85a1.93,1.93,0,0,1,.57-1.93c.94-.93,1.8-1.95,2.84-3.1-1.56-.1-2.87-.12-4.16-.28a1.88,1.88,0,0,1-1.18-.75c-.68-1.07-1.23-2.23-2-3.57-.65,1.4-1.16,2.65-1.82,3.81a2.66,2.66,0,0,1-1.37,1.1c-1.23.39-2.52.61-4,1,1.12,1,2.11,1.88,3,2.82A1.86,1.86,0,0,1,65,51.78c-.13,1.34-.39,2.67-.64,4.26,1.4-.88,2.58-1.68,3.81-2.37a1.72,1.72,0,0,1,1.28-.09C70.72,54.05,71.93,54.64,73.32,55.26Zm49.18-9.79c1.71,2.94,3.26,5.64,4.85,8.31a1.06,1.06,0,0,0,.74.45c.9.05,1.8,0,2.9,0-1.25-2.18-2.39-4.17-3.55-6.21l.57-.37c.17-.11.34-.22.5-.34a5.61,5.61,0,0,0,2.33-6,5.19,5.19,0,0,0-4.6-4.44c-2.86-.28-5.77-.06-8.77-.06a14.11,14.11,0,0,1,.85,1.52,2,2,0,0,0,2.23,1.34,43.63,43.63,0,0,1,4.43,0,2.9,2.9,0,1,1,0,5.79C124.26,45.49,123.51,45.47,122.5,45.47Zm-40.91.43c1,1,1.86,1.81,2.79,2.54A1.7,1.7,0,0,1,85,50.32c-.23,1.23-.4,2.47-.63,4,1.34-.85,2.47-1.52,3.55-2.26a1.54,1.54,0,0,1,1.75-.15c1.12.55,2.29,1,3.61,1.61A13.9,13.9,0,0,0,93,51.26a3.9,3.9,0,0,1,1.37-4.72c.45-.36.53-1.18.85-2-1.23-.06-2.1-.15-3-.14a1.5,1.5,0,0,1-1.58-1c-.52-1.11-1.15-2.17-1.83-3.42-.58,1.26-1.16,2.31-1.57,3.42a2.39,2.39,0,0,1-2.1,1.64C84,45.28,82.9,45.6,81.59,45.9Zm116.49,7.26c1.54-.61,2.81-1.08,4-1.63a1.42,1.42,0,0,1,1.63.17c1,.75,2.06,1.41,3.29,2.24,0-1.53-.08-2.77,0-4a2.62,2.62,0,0,1,.78-1.57c1-.92,2.15-1.71,3.42-2.69a34.47,34.47,0,0,0-3.48-.81A1.9,1.9,0,0,1,206,43.19c-.23-1-.62-2-1-3.26-.86,1.16-1.64,2.11-2.29,3.15a2.3,2.3,0,0,1-2.15,1.15c-.87,0-2.16,0-2.52.49-.76,1.08.43,1.93,1.08,2.73a1.59,1.59,0,0,1,.29,1.84C198.92,50.45,198.58,51.68,198.08,53.16ZM127.8,233.72c-.43-6.9-.85-13.7-1.28-20.65l-4.23.32c.51,7,1,13.75,1.52,20.62ZM188.51,48.45,182.6,36.71l-8.79,17.54a14.6,14.6,0,0,1,1.91,0,1.67,1.67,0,0,0,2-1.21c.57-1.36,1.29-2.65,2-4,.95-1.88,1.91-3.75,2.94-5.76.8,1.58,1.49,3,2.25,4.41a1.33,1.33,0,0,0,.82.68C186.54,48.51,187.41,48.45,188.51,48.45Zm-86.95,5.8a7.43,7.43,0,0,1,1.19,0,2.38,2.38,0,0,0,3-1.83,17.06,17.06,0,0,1,1.26-2.58l3.32-6.52c.79,1.58,1.49,3,2.24,4.4a1.38,1.38,0,0,0,.82.69c.85.09,1.72,0,2.83,0-2-4-3.91-7.77-5.9-11.74C107.4,42.61,104.53,48.34,101.56,54.25Zm34.67-7.46h11.63V44H136.23Zm11.64,4.51h-7.25a5.32,5.32,0,0,0-4.25,2.88h11.5ZM136.32,36.78c.68.71,1.23,1.33,1.82,1.91.36.35.78.9,1.19.91,2.82.08,5.64,0,8.53,0V36.78Zm18.12,154.4c1,3.15,2,6.18,3,9.21.67,2,.67,2,2.8,2a2.43,2.43,0,0,0,.32-.12c-.11-.4-.2-.82-.33-1.22-.85-2.58-1.7-5.15-2.54-7.73C157,191,157,191,154.44,191.18ZM114.66,51.42c.59,2.67,1.5,3.23,4.32,2.69C118.06,51.27,117.55,51,114.66,51.42Zm72.18,0c.95,2.89,1.41,3.17,4.37,2.74C190.43,51.37,189.91,51,186.84,51.4Z" transform="translate(-0.14 -0.24)"/><path class="cls-2" d="M146.52.24a7.48,7.48,0,0,1-1.13.21C137,.62,128.51.64,120.08,1c-14.86.61-29.71,1.51-44.53,2.91S46.08,7.29,31.39,9.35c-1.74.24-1.74.23-1.74,2,0,52.15.07,104.31-.12,156.46a69.88,69.88,0,0,0,9.92,36.51c2.24,3.82,4.88,7.4,7.34,11.09.24.36.51.7.83,1.14l-2.09.84q4.52,20.17,9,40.28c3.87-1.23,7.57-2.51,11.33-3.57C71,252.62,76.15,251.31,81.3,250a2.34,2.34,0,0,1,1.73.33,359.34,359.34,0,0,0,63,37.59,5.19,5.19,0,0,1,.5.31H.14V.24Zm-93.79,260-5.88-26.38c-7.25,1-42.62,12.92-46.22,15.58l18.92,10.89c-2.19,8.52-4.36,17-6.58,25.55a364.07,364.07,0,0,1,65.59-18.43c-1.5-4.56-2.94-8.95-4.46-13.61Z" transform="translate(-0.14 -0.24)"/><path class="cls-2" d="M146.76,288.24a6.22,6.22,0,0,1,.76-.5A358,358,0,0,0,209.19,251a2.12,2.12,0,0,1,2-.46q13.18,3.35,26.38,6.64c.54.14,1.06.32,1.76.53,2.8-13.46,5.57-26.86,8.37-40.35l-2.2-.75c.31-.42.55-.77.81-1.11,6.63-8.81,12.06-18.26,15.06-29a60.67,60.67,0,0,0,2.24-16.46V9.6c-4-.57-8-1.08-12-1.7C236.88,5.62,222.1,4.26,207.33,3c-9.52-.85-19.07-1.36-28.62-1.75C168.52.79,158.32.7,148.13.45a10.81,10.81,0,0,1-1.37-.21H292.9v288Zm133.53-2.35c-2.22-8.64-4.39-17.06-6.58-25.55l19.08-11c-15.2-6.14-30.27-11.91-46.18-15.44q-2.78,13.38-5.46,26.41l-22.24-5.87c-1.47,4.5-2.86,8.74-4.26,13A357.27,357.27,0,0,1,280.29,285.89Z" transform="translate(-0.14 -0.24)"/><path class="cls-2" d="M242.47,147.17c-.71-2.95-1.45-5.93-2.1-8.93a1.68,1.68,0,0,1,.51-1.26c2.72-2.69,4.61-5.76,4.47-9.73a31.74,31.74,0,0,0-.54-3.5c-3.51,2.11-5.67,4.85-6.39,8.67l-.38.06c-.36-1.24-.72-2.48-1.09-3.71a2.33,2.33,0,0,0-.14-.33c-2.24-4.56-6.34-8.25-11.88-8.44a8.17,8.17,0,0,0-1,.08c1.19,3.39,3.14,6.06,6.33,7.55a21.92,21.92,0,0,0,5,1.35c.67.13,1.06.28,1.33.94.78,2,1.73,3.85,1.81,6a6.06,6.06,0,0,0,1.13,2.55,12.94,12.94,0,0,1,1,4.54c-2.19-5.79-5.89-9.79-12.36-11A14.34,14.34,0,0,0,230.7,139a13.44,13.44,0,0,0,9.06,5.75c1,.18,1.41.54,1.45,1.58.09,2.75.28,5.49.24,8.32-1.92-4.75-5-8.15-10.17-9.78,0,.6,0,1,0,1.43.41,6,3.28,10.25,8.78,12.68a1.23,1.23,0,0,1,.89,1.59,51,51,0,0,1-3.56,11.81c.79-6.84-1-12.59-6.95-16.85a16.05,16.05,0,0,0-.41,10.58c1.13,3.54,3.57,6.07,6.84,8.27l-6.38,10.31-.43-.14c1.71-6.21.81-11.83-3.6-16.83a17.58,17.58,0,0,0-3.55,10.47,16.38,16.38,0,0,0,3.83,10.2c-1.52,2.17-7.65,7.13-11,8.79a21.76,21.76,0,0,0,4.58-10,17.36,17.36,0,0,0-1.7-10.57c-7,4.11-9.35,12.69-6,22.42-1.11.53-2.23,1.12-3.38,1.63a49.68,49.68,0,0,1-14.58,4.17,41.73,41.73,0,0,1-7.63-.4c-7.33-.6-14.66-1.25-22-1.81a1.61,1.61,0,0,1-1.73-1.33c-1-3.17-2-6.32-3.1-9.46a1.43,1.43,0,0,1,.34-1.69,90.82,90.82,0,0,0,17.51-25.77,1.85,1.85,0,0,1,1.35-.82A35.18,35.18,0,0,0,212,129.45c.15-5.11,0-10.24,0-15.36a5.94,5.94,0,0,0-6.12-6.15c-5.6,0-11.2,0-16.8,0h-1.49c.11-1.42.2-2.72.29-4,.11-1.6.25-3.19.34-4.79s-.4-2-1.86-2c-2.6,0-5.2,0-7.8,0H108.47c-2.53,0-2.72.19-2.57,2.66.17,2.71.37,5.42.57,8.27-.56,0-1,.07-1.48.07H88.43c-4.13,0-6.58,2.44-6.59,6.55,0,4.76,0,9.52,0,14.28a34.46,34.46,0,0,0,30.53,34.28,5.21,5.21,0,0,1,4.9,3.53,83.68,83.68,0,0,0,16,23.08,1.81,1.81,0,0,1,.53,2.18c-1.11,3.13-2.11,6.29-3.11,9.45a1.35,1.35,0,0,1-1.41,1.11c-8.88.74-17.75,1.67-26.65,2.24a28.11,28.11,0,0,1-7.78-1.06A49.58,49.58,0,0,1,82.09,199c3.82-9,1.48-16.34-6-22.6C72.68,183.92,74,190.6,78.65,197a46.57,46.57,0,0,1-10.73-8.45c5.18-6.82,5.09-13.69.46-20.71-3.2,2.94-5.9,8.92-3.77,16.63-1.3-.78-5.34-7.12-6.48-10.22,3.61-2.48,6.35-5.65,7.06-10.18a16.53,16.53,0,0,0-.89-8.44,14.6,14.6,0,0,0-6,7.28,18.16,18.16,0,0,0-.77,9.73c-.29-.37-.45-.48-.49-.63-1.09-3.75-2.15-7.51-3.24-11.27-.27-.93,0-1.36.93-1.78,5.45-2.41,8.29-6.68,8.7-12.6,0-.42,0-.85,0-1.28-3.7.41-7.07,3.68-10.1,9.74a5.58,5.58,0,0,1-.13-.89c.1-2.55.26-5.11.32-7.66,0-.94.38-1.29,1.29-1.47,6.35-1.25,10-5.22,11.47-11.42.08-.35.1-.7.17-1.25-6.43,1.17-10.12,5.17-12.18,11L54,143c.35-1.52.29-3.35,1.15-4.48,1-1.31.91-2.66,1.3-4a44.73,44.73,0,0,1,1.89-5c.12-.27.8-.39,1.23-.43,5.47-.51,9-3.5,11-8.49a2.15,2.15,0,0,0,0-.45,9.7,9.7,0,0,0-5.22.87A14.59,14.59,0,0,0,58,128.29a31.31,31.31,0,0,0-1.19,3.5,9,9,0,0,1-.46.88,12.48,12.48,0,0,0-6.3-8.82,9.87,9.87,0,0,0,.34,8.33,42,42,0,0,0,3.58,4.9c.2.29.48.7.41,1-.68,3.07-1.43,6.13-2.17,9.24-.61-5-3.34-8.47-7.52-11-2.52,5.38.1,12.87,6.5,17.29l.62-1.22.46,8.65c-3.15-4.37-7.51-6.16-13.09-6.39a39.17,39.17,0,0,0,1.92,4.34c2.5,4.16,6.45,6.2,11.06,7.06a2.14,2.14,0,0,1,1.94,1.81C58.7,184.07,68.89,195.6,84,202.86c2.4,1.16,5,1.95,7.47,2.9l1.17.48c-4,.7-7.73,1.22-11.41,2-9.12,2-18.21,4.23-27.31,6.37-.63.15-1.14.4-1.69-.3-7-8.92-12.73-18.48-15.77-29.5a53,53,0,0,1-2-14.21q0-45.12,0-90.24c0-1.22.34-1.6,1.55-1.76,8-1.05,16.06-2.32,24.12-3.27s16.3-1.76,24.47-2.44q24.69-2.07,49.47-2.56,21-.39,41.87.46c15.7.65,31.39,1.6,47,3.48,11.55,1.4,23.08,2.93,34.62,4.41a8.32,8.32,0,0,1,.93.22c0,.38,0,.7,0,1q0,45.42,0,90.84c0,9.76-2.8,18.82-7.22,27.44a100.3,100.3,0,0,1-10.53,16.14,1.11,1.11,0,0,1-1.41.45,319.67,319.67,0,0,0-36.71-8.24c-.27,0-.53-.13-1.1-.27,1.46-.49,2.65-.85,3.82-1.29,17.92-6.7,30-18.94,35.26-37.5a1.83,1.83,0,0,1,1.68-1.47c5.33-1,9.68-3.48,12.06-8.65a20.36,20.36,0,0,0,.72-2,4.62,4.62,0,0,0,.08-.77c-5.25.22-9.6,2-12.79,6.39.16-2.93.3-5.69.46-8.65.21.45.36.78.52,1.1,5.19-2.9,9.45-10.72,6.7-17.08C246.59,137.75,243.82,141.67,242.47,147.17ZM239.7,199c-7.18-5.14-20.37-3.5-24.75,3C222.49,205.74,233.28,205.83,239.7,199ZM79.78,202c-4.57-6.51-19.29-8.26-24.7-2.93C61.58,205.94,72.44,205.66,79.78,202ZM180.93,79.82c.38.61.59.92.77,1.25,1.73,3.28,3.45,6.57,5.2,9.85.19.36.52.85.83.89a22.69,22.69,0,0,0,2.87,0c.33-5.38.65-10.67,1-16.07l-2.92-.19L188,86.92a3.21,3.21,0,0,1-.86-1.12c-1.71-3.25-3.4-6.51-5.13-9.75-.18-.35-.55-.78-.87-.82a25.71,25.71,0,0,0-2.93,0c-.23,5.39-.44,10.72-.67,16.15h2.87Zm-21.08-5.44c-5,0-8.7,3.49-8.71,8.25a8.44,8.44,0,0,0,8.71,8.46,8.36,8.36,0,1,0,0-16.71ZM40.75,170.52c2.18,7.46,10.24,11.4,18,11.24C57.17,174.72,50,169.55,40.75,170.52ZM109.23,92c2.89.44,3.16.28,4-2.19a2,2,0,0,0,.15-.45,2,2,0,0,1,2.43-1.9,17.5,17.5,0,0,0,3.23-.17,1.07,1.07,0,0,1,1.28.76,25.69,25.69,0,0,0,1.26,2.71,1.33,1.33,0,0,0,.84.64c.86.08,1.74,0,2.78,0-.21-.53-.32-.86-.47-1.17Q121.4,83.36,118,76.4c-.3-.63-.57-1.09-1.41-.93s-1.56,0-1.94,1.1c-1.4,4.2-2.94,8.36-4.42,12.54C109.91,90.08,109.57,91.05,109.23,92ZM66.36,192.11c-5.3-6.19-14.79-6.75-21.44-2.69C49.63,194.85,58.73,195.71,66.36,192.11ZM235.9,181.74c7.5.76,17.36-5.42,17.83-11.18C245.54,169.49,237.56,174.25,235.9,181.74Zm13.95,7.7c-6.45-4.34-18.58-2.78-21.41,2.7C235.55,195.85,245.36,194.63,249.85,189.44ZM94.15,80l5.88-.57-.22-2.8L91,77.41c.52,5.48,1,10.79,1.52,16.17l8.65-.77L100.85,90l-5.75.46c-.12-1.3-.22-2.52-.33-3.81l5.54-.54-.22-2.77-5.58.43C94.39,82.48,94.27,81.3,94.15,80Zm48.26-1.09a4.8,4.8,0,1,0-6.22,4.58c.93.35,1.9.63,2.79,1.06a1.86,1.86,0,0,1,1.07,2.09,1.94,1.94,0,0,1-1.68,1.65c-1.46.35-2.27-.14-3.07-1.76h-2.84a5,5,0,0,0,4.86,4.67,5.18,5.18,0,0,0,5.54-4c.59-2.71-.46-4.55-3.29-5.73a16.36,16.36,0,0,1-2.67-1,2.45,2.45,0,0,1-1.08-1.73,2,2,0,0,1,1.36-1.34c.6-.08,1.31.43,1.93.78.22.13.28.52.38.71ZM81.66,82.68a2.34,2.34,0,0,0,0-.47c-.65-2.46-2.52-3.7-5.26-3.49a4.57,4.57,0,0,0-.69,9c1,.29,2.1.48,3.11.84a1.88,1.88,0,0,1,1.23,2,1.94,1.94,0,0,1-1.54,1.78c-1.43.45-2.24.05-3.28-1.6l-2.78.4c.75,2.95,2.68,4.34,5.57,4.14a5.07,5.07,0,0,0,4.88-4.44c.3-2.82-.92-4.53-3.93-5.41-1-.28-2-.45-2.88-.78A1.49,1.49,0,0,1,75,82.9a1.41,1.41,0,0,1,1.6-1.29A10.13,10.13,0,0,1,79,82.67l-.14.34ZM234.33,95.24c1.29-.7,2.43-1.26,3.51-1.92a1.49,1.49,0,0,1,1.75,0c1.1.65,2.26,1.2,3.59,1.89-.25-1.52-.52-2.77-.62-4a2.4,2.4,0,0,1,.52-1.55c.86-1,1.85-1.84,3-2.92-1.44-.21-2.57-.46-3.71-.52a2,2,0,0,1-2-1.39c-.46-1.06-1-2.07-1.67-3.29-.6,1.23-1.15,2.17-1.53,3.17A2.12,2.12,0,0,1,235,86.21a33.25,33.25,0,0,0-3.58.52c1.16,1.13,2.15,2,3,3a2.13,2.13,0,0,1,.46,1.44C234.82,92.45,234.56,93.74,234.33,95.24ZM50,95.24c1.29-.7,2.43-1.26,3.51-1.92a1.49,1.49,0,0,1,1.75,0c1.1.65,2.26,1.2,3.59,1.9-.24-1.49-.42-2.71-.64-3.92a1.73,1.73,0,0,1,.58-1.8c1-.83,1.82-1.76,2.9-2.81-1.53-.21-2.79-.31-4-.6a2.53,2.53,0,0,1-1.42-1c-.69-1.07-1.21-2.25-1.9-3.57-.66,1.34-1.24,2.43-1.73,3.56a1.66,1.66,0,0,1-1.54,1.07c-1.16.12-2.31.32-3.46.49l-.1.36c.88.89,1.82,1.75,2.63,2.71a2.18,2.18,0,0,1,.44,1.44C50.5,92.46,50.24,93.74,50,95.24Zm167.63,12.87c.54,5.06,8,10.19,12.87,8.86C228.75,112.05,223.25,107.6,217.64,108.11Zm-140.55,0c-5.67-.58-11.44,4.23-12.85,8.93A12.13,12.13,0,0,0,77.09,108.12ZM220.28,94.54c.59-5.42,1.17-10.72,1.76-16.15L217,77.87c-.07.89-.14,1.67-.2,2.49l2,.37c-.46,4.51-.92,9-1.38,13.49Zm17.66,29.73c1.6-4-.73-10.07-4.46-11.67C231.6,116.72,233.57,121.93,237.94,124.27ZM61.24,112.58c-4.26,2.08-5.87,8.12-4.45,11.63C61,122.31,62.91,117.25,61.24,112.58Z" transform="translate(-0.14 -0.24)"/><path class="cls-2" d="M151.62,202.21h-18.4a8.65,8.65,0,0,1,.19-.87c1-3,2-6,2.91-9,.28-.9.66-1.31,1.66-1.25.66,0,1.77.43,1.81-.74s-1.09-1-1.81-.9a3,3,0,0,1-2.59-1.13A88.37,88.37,0,0,1,111,132.93c-.78-10.61-1.52-21.22-2.28-31.83,0-.35,0-.71-.06-1.17H185a3.19,3.19,0,0,1,.06.55c-.74,10.29-1.54,20.57-2.21,30.87a92.46,92.46,0,0,1-3.49,20.76,87,87,0,0,1-21.45,36.54,3.82,3.82,0,0,1-1.76.74,20.14,20.14,0,0,1-2.42.26,5.35,5.35,0,0,1,.62-1.29,85.62,85.62,0,0,0,24.15-54.29c.71-10.37,1.49-20.74,2.24-31.11,0-.39,0-.79.08-1.28h-6.4c-.28,3.82-.53,7.56-.82,11.3-.69,9-1.15,18-2.14,26.9a80.54,80.54,0,0,1-12.36,34.34A93.44,93.44,0,0,1,148,188.34a2.7,2.7,0,0,1-2.59,1.08,1.34,1.34,0,0,0-.82,0,6.71,6.71,0,0,0-1.05.88c.34.27.65.71,1,.75.87.12,1.76,0,2.63.07a1.36,1.36,0,0,1,1,.59C149.33,195.13,150.43,198.54,151.62,202.21Z" transform="translate(-0.14 -0.24)"/><path class="cls-2" d="M34.54,38.46V36.9q0-10.32,0-20.64c0-2.31,0-2.3,2.33-2.66C54.54,10.9,72.31,9,90.14,7.6q27.77-2.14,55.62-2.14,26.94,0,53.83,1.9,29.16,2.1,58.06,6.41c.28,0,.54.12.88.2V38.43A767.06,767.06,0,0,0,34.54,38.46Zm178.27-18-.21,2.66,6.49.56a5.64,5.64,0,0,1-9.8-2,5.7,5.7,0,0,1,2.9-6A5.44,5.44,0,0,1,218.71,17a2,2,0,0,0,1,.67c.85.14,1.73.14,2.61.2-.35-3.14-4.66-5.94-8.47-5.56A8.21,8.21,0,0,0,206.35,21a8.33,8.33,0,0,0,9.15,7.54c4.16-.29,7.62-3.61,7.45-7.25ZM55.37,30.91l2.76-.35-.6-6,6.25-.64.66,6,2.76-.28c-.51-5.27-1-10.46-1.53-15.77l-2.83.31.67,7-6.28.64-.8-7-2.82.32ZM139.6,10V25.67h2.84V19.75h6.28v5.89h2.75V9.94h-2.78v6.92h-6.4V10Zm63.54,17.56c-.12-.42-.2-.72-.3-1-1.65-4.75-3.32-9.49-4.94-14.25-.24-.71-.55-1-1.33-1s-1.39-.13-1.83.84c-2.09,4.57-4.29,9.09-6.45,13.63-.13.27-.2.56-.33.91a11.12,11.12,0,0,1,1.54.14,1.62,1.62,0,0,0,2.17-1.21,10.71,10.71,0,0,1,1-2c.15-.26.49-.62.74-.61,1.68.06,3.5-.15,5,.47.79.33,1,2.14,1.41,3.28,0,.07,0,.18.07.22s.38.44.6.46C201.31,27.43,202.18,27.45,203.14,27.51Zm24-14c-.33,3.72-.76,7.33-.92,11A4.93,4.93,0,0,0,231,30c3.31.34,5.5-1.16,6-4.4.46-2.76.67-5.55,1-8.33.09-.86.16-1.71.24-2.63l-2.79-.26c-.12,1.1-.23,2-.32,3-.25,2.43-.47,4.86-.76,7.28-.23,1.88-1.21,2.77-2.76,2.64-1.77-.14-2.57-1-2.49-3,0-1.4.23-2.79.36-4.18.19-2.09.39-4.18.59-6.33ZM184.67,10.4h-8.5c-.16,5.21-.33,10.54-.51,16H184V23.92l-5.23-.24V20.31H184l.14-2.59L179,17.46V13.1h5.58ZM251.56,16l-8.42-1c-.61,5.43-1.2,10.71-1.79,16.06l8.26.93c.12-1,.21-1.8.32-2.66l-5.49-.71.44-3.4,5.26.57.29-2.67-5.27-.67.53-4.41,5.53.62C251.33,17.8,251.43,17,251.56,16ZM70.38,13.28c.5,5.41,1,10.68,1.48,16.1L78,28.83c2.25-.19,2.25-.19,1.92-2.46a1.71,1.71,0,0,0-.15-.4l-5.4.42L74.14,23l5.24-.51-.19-2.67-5.33.39c-.13-1.56-.24-2.94-.36-4.42l5.56-.51-.28-2.7Zm58,6.7c1.1-.09,2.1-.13,3.08-.26a4,4,0,0,0,3.75-3.45c.48-2.32-.25-4.58-1.84-5.58a3,3,0,0,0-1.31-.55c-2.25-.05-4.51,0-6.86,0,.15,5.34.31,10.59.46,15.92l2.72-.13Zm-27.64-4.53a4.21,4.21,0,0,0-7.94-1.92,4.39,4.39,0,0,0,2.14,6.22c.9.42,1.87.7,2.75,1.16a2,2,0,0,1,1,2.35A1.69,1.69,0,0,1,97,24.7a1.74,1.74,0,0,1-1.89-1.49,1.73,1.73,0,0,0-.21-.33l-2.7.21a4.65,4.65,0,0,0,4.88,4.36,4.82,4.82,0,0,0,4.51-4.61A4.2,4.2,0,0,0,99,18.39c-1-.45-2-.77-3-1.21a1.51,1.51,0,0,1-.89-1.89,1.89,1.89,0,0,1,1-1.13c.81-.3,1.32.23,1.63,1a.78.78,0,0,0,.58.42C99.16,15.57,99.94,15.5,100.72,15.45ZM50.55,18.06l-.33-2.7-8.67,1.06.32,2.67,2.91-.27L46.41,32l2.77-.37c-.52-4.43-1-8.73-1.54-13.13Zm113.88,8h7.35l.11-2.52-4.65-.21V10.13h-2.81Zm-47.55-2.4c-.16-4.39-.33-8.72-.49-13h-2.85q.33,8,.64,15.76h7.46V23.66ZM105.33,11l.8,15.84,2.79-.19c-.25-5.34-.5-10.54-.74-15.82Z" transform="translate(-0.14 -0.24)"/><path class="cls-2" d="M88.84,248.37c38.3-7.2,76.29-6.07,114.57.64-.55.43-.84.68-1.15.9a361.85,361.85,0,0,1-54.72,32.36,2.06,2.06,0,0,1-2,0,361.11,361.11,0,0,1-55.59-33C89.63,249,89.34,248.77,88.84,248.37Zm57,10h0c0-1,.07-2.08,0-3.12a4,4,0,0,0-4.13-3.81c-2.89-.14-4.8,1-5,3.45a37.14,37.14,0,0,0,0,7.15c.23,2.29,2.11,3.45,4.86,3.39a3.93,3.93,0,0,0,4.2-3.6A30.71,30.71,0,0,0,145.8,258.37Zm-16.59,4.35c.78-.71,1.29-1.14,1.76-1.61a26.82,26.82,0,0,0,2.41-2.48,4.63,4.63,0,0,0-.51-6.11,5.15,5.15,0,0,0-6.31-.08,4.39,4.39,0,0,0-1.41,4h2.58c.11-.41.18-.76.3-1.09.38-1.12,1.3-1.7,2.16-1.37a1.92,1.92,0,0,1,1,2.59,7,7,0,0,1-1.34,1.81,37.75,37.75,0,0,1-3.57,3.36c-1.22.95-1.23,2.07-1,3.39h8.89v-2.4h-4.93Zm31.64,2.47a16.38,16.38,0,0,1,2,0,2,2,0,0,0,2.21-1.17c.84-1.44,1.88-2.78,2.74-4.22a9.14,9.14,0,0,0,1.16-2.73,4.57,4.57,0,0,0-3.49-5.55c-3-.57-5.35.78-5.91,3.46a5.22,5.22,0,0,0,.62,4,4.07,4.07,0,0,0,3.62,1.67Zm-6.17-.07V251.78h-4.3v2.3l1.58.16v10.88Z" transform="translate(-0.14 -0.24)"/><path class="cls-2" d="M34.54,74.3c0-1.84,0-3.36,0-4.87,0-.78.49-.77,1-.85,6.69-.92,13.37-2,20.07-2.76,11-1.25,21.93-2.56,32.93-3.37,15-1.1,30.08-1.91,45.17-2.16,14.08-.23,28.15,0,42.22.43,8.54.25,17.09.82,25.62,1.51q16.26,1.32,32.47,3.1c7.95.89,15.85,2.16,23.76,3.27.23,0,.46.09.74.14v5.53A733,733,0,0,0,34.54,74.3Z" transform="translate(-0.14 -0.24)"/><path class="cls-2" d="M91,117.33h16.14c1,12.06,1,24.24,4.95,36.15-1.2-.17-2.18-.23-3.12-.46-7-1.68-11.7-6.13-15-12.23A24.38,24.38,0,0,1,91,128.69c0-3.32,0-6.63,0-10Z" transform="translate(-0.14 -0.24)"/><path class="cls-2" d="M182.25,153a88.54,88.54,0,0,0,3.35-17.75c.47-6,.89-12,1.33-18.09h15.75a1.26,1.26,0,0,1,.17.44c-.06,4.83.28,9.72-.31,14.49-1.12,9.05-6.06,15.68-14.29,19.66a33.47,33.47,0,0,1-5.78,1.68Z" transform="translate(-0.14 -0.24)"/><path class="cls-2" d="M187.09,114.46c.09-1.08.18-2,.23-2.89s.67-.65,1.15-.65q8.52,0,17,0a5.7,5.7,0,0,1,1.3.15,3,3,0,0,1,2.31,2.74c0,6.4.25,12.82-.29,19.18-1.17,13.61-12.68,25.36-26.22,27.29-.9.13-1.81.22-3,.36.56-1.55,1-2.92,1.55-4.26.07-.18.44-.32.68-.34,9.63-.51,15.9-6,20.4-13.93a25.84,25.84,0,0,0,3.25-12.77c0-4.28,0-8.56,0-12.84,0-1.66-.38-2-2-2h-16.4Z" transform="translate(-0.14 -0.24)"/><path class="cls-2" d="M106.87,114.46H90.14c-1.38,0-1.87.43-1.86,1.74,0,5.08-.32,10.2.19,15.22,1.14,11,6.86,19,17.17,23.34a25.84,25.84,0,0,0,6.19,1.23c.67.1,1.1.19,1.31.9.35,1.18.8,2.33,1.3,3.76-1.41-.17-2.67-.24-3.89-.47a31.71,31.71,0,0,1-25.77-30.7c-.06-5,0-10,0-15a3.21,3.21,0,0,1,3.56-3.58c5.71,0,11.43,0,17.15,0,.9,0,1.21.3,1.2,1.16S106.8,113.56,106.87,114.46Z" transform="translate(-0.14 -0.24)"/><path class="cls-2" d="M117.35,219.79c-1.47.16-2.86.35-4.25.42a2.07,2.07,0,0,1-1.22-.52c-4.27-3.38-11.08-1.11-12.19,4.07s3.64,9.58,9,8.45a6.58,6.58,0,0,0,5.13-4.29l-8.83,1-.51-3.63,14.4-1.57a9.25,9.25,0,0,1-.35,4.66c-1.31,4-5.73,7.91-12.19,7.63a11.16,11.16,0,0,1-10.51-8,10.28,10.28,0,0,1,5.76-12.23,13.25,13.25,0,0,1,12.23.27A7.59,7.59,0,0,1,117.35,219.79Z" transform="translate(-0.14 -0.24)"/><path class="cls-2" d="M159.92,212.63c1.56.07,3,.09,4.34.25.36,0,.77.51,1,.88,2.34,4.27,4.64,8.56,7,12.85a3.38,3.38,0,0,0,.89,1.16c.37-4.71.73-9.42,1.11-14.3l4.23.33c-.62,6.94-1.22,13.72-1.83,20.49l-.48.08c-3,.37-4.66-1.06-5.87-3.84-1.59-3.64-3.72-7.05-5.62-10.56-.16-.29-.37-.57-.72-1.11-.1,1.89-.2,3.46-.27,5-.14,2.87-.29,5.74-.38,8.61,0,.8-.32,1.07-1.08,1-.94-.1-1.89-.15-3-.22C159.43,226.41,159.67,219.6,159.92,212.63Z" transform="translate(-0.14 -0.24)"/><path class="cls-2" d="M143.61,233.58c-8.06,0-13.51-7-11.26-14.07,1.31-4.13,4.38-6.34,8.49-7.23A11.71,11.71,0,0,1,153,216.84c4.49,6.72-.11,16-8.25,16.68C144.28,233.56,143.8,233.57,143.61,233.58Zm-.25-17.84a7.08,7.08,0,0,0-7.39,7,7.29,7.29,0,0,0,7.33,7.16,7.09,7.09,0,1,0,.06-14.17Z" transform="translate(-0.14 -0.24)"/><path class="cls-2" d="M58.52,224.05c3.24-.7,6.32-1.58,9.47-2a5.82,5.82,0,0,1,6.52,4.12,6.19,6.19,0,0,1-2.6,7.63l-1.17.76L78,240.68c-1.68.38-3.11.74-4.56,1-.3,0-.72-.28-1-.52-2.11-1.77-4.19-3.57-6.5-5.25l1.8,7.18-3.88,1Zm5.06,2.48,1.58,6.19A45.25,45.25,0,0,0,69.6,231c1.17-.61,1.43-1.86,1-3.26a2.33,2.33,0,0,0-2.46-1.86C66.65,226,65.18,226.29,63.58,226.53Z" transform="translate(-0.14 -0.24)"/><path class="cls-2" d="M201.21,237.55c-1.38-.22-2.63-.37-3.87-.65a1.24,1.24,0,0,1-.68-.79c-.42-1.33-.73-2.69-1.17-4a1.48,1.48,0,0,0-.9-.88c-2-.33-4-.54-6.05-.83a1.16,1.16,0,0,0-1.35.67c-.66,1.19-1.37,2.35-2.11,3.48-.19.29-.59.64-.88.62-1.27-.06-2.53-.25-4-.42.72-1.28,1.34-2.42,2-3.54,3-5,6-10,8.94-15a1.62,1.62,0,0,1,1.72-.83c1.85,0,2.54.87,3,2.59,1.59,6.1,3.35,12.15,5,18.23C201,236.58,201.09,237,201.21,237.55Zm-7-10.13-1.47-6.35-3.05,5.75Z" transform="translate(-0.14 -0.24)"/><path class="cls-2" d="M218.87,235l4.09.92c.42,2.55,1.26,3.36,3.37,3.37a2.4,2.4,0,0,0,2.41-1.44,2.37,2.37,0,0,0-.61-2.94c-1-.82-2.12-1.44-3.11-2.24a11.65,11.65,0,0,1-2.39-2.31,5.53,5.53,0,0,1,2.64-8.32c4.25-1.64,9.27,1.14,9.66,5.36,0,.55,0,1.1,0,1.83l-4.26-1.08c-.4-2.16-1.19-3-2.83-2.79a2.4,2.4,0,0,0-1.66,1.08,2.92,2.92,0,0,0,.24,2.09c.22.49.85.81,1.33,1.16,1.06.78,2.18,1.48,3.21,2.3,4.34,3.48,1.77,9.07-1.69,10.47-4,1.62-9.05-.54-10.12-4.54A18.34,18.34,0,0,1,218.87,235Z" transform="translate(-0.14 -0.24)"/><path class="cls-2" d="M77.58,219.62l12.11-2.27L90.3,221l-7.81,1.45.93,4.8,7.38-1.31.62,3.58-7.29,1.38.88,4.55,7.51-1.34.62,3.58-11.37,2.15C80.37,233.09,79,226.45,77.58,219.62Z" transform="translate(-0.14 -0.24)"/><path class="cls-2" d="M215.2,240.14l-10.4-2c1.21-6.75,2.41-13.45,3.63-20.29l4.19.74c-1.07,5.6-2.11,11.1-3.17,16.67l6.5,1.35C215.7,237.81,215.46,238.92,215.2,240.14Z" transform="translate(-0.14 -0.24)"/><path class="cls-2" d="M169,54.19l-11-9.86-.9-.8c-2.86-2.55-2.86-2.55-2.58-6.76l11.62,10.38V36.79H169Z" transform="translate(-0.14 -0.24)"/><path class="cls-2" d="M238.07,56.65c.52-1.53.89-2.76,1.36-3.94a1.54,1.54,0,0,0-.3-1.74c-.76-.92-1.47-1.87-2.38-3.06,1.44-.07,2.64-.19,3.85-.18a2.12,2.12,0,0,0,2-1c.68-1.06,1.48-2.05,2.39-3.28.4,1.27.79,2.29,1,3.35a1.76,1.76,0,0,0,1.64,1.57c1.17.17,2.31.52,3.65.84-1.31,1-2.48,1.86-3.56,2.79a2,2,0,0,0-.63,1.25c-.08,1.31,0,2.62,0,4.26-1.3-.89-2.31-1.65-3.39-2.27a2,2,0,0,0-1.48-.17C240.91,55.47,239.64,56,238.07,56.65Z" transform="translate(-0.14 -0.24)"/><path class="cls-2" d="M227.09,55.74c-1.3-.89-2.27-1.64-3.34-2.24a2.25,2.25,0,0,0-1.61-.18c-1.28.41-2.52,1-4,1.59.44-1.36.73-2.5,1.2-3.56a2,2,0,0,0-.41-2.47c-.73-.77-1.32-1.67-2.12-2.71,1.4-.08,2.57-.2,3.75-.19a2.25,2.25,0,0,0,2.17-1.14c.64-1,1.43-2,2.31-3.18.4,1.28.79,2.32,1,3.39a1.74,1.74,0,0,0,1.66,1.55c1.13.17,2.24.5,3.63.83-1.3,1-2.46,1.82-3.52,2.75a2.22,2.22,0,0,0-.68,1.37C227,52.85,227.09,54.15,227.09,55.74Z" transform="translate(-0.14 -0.24)"/><path class="cls-2" d="M56.14,48.11c-1,1.14-1.84,2.13-2.77,3a2.15,2.15,0,0,0-.66,2.23c.23,1.13.38,2.27.6,3.64-1.39-.61-2.56-1.18-3.77-1.62a1.86,1.86,0,0,0-1.39.1c-1.19.64-2.31,1.4-3.73,2.3.23-1.58.47-2.88.57-4.2a2.06,2.06,0,0,0-.47-1.41c-.87-.92-1.85-1.73-3-2.73,1.34-.32,2.48-.68,3.64-.85a2.24,2.24,0,0,0,2-1.59c.43-1.1,1-2.14,1.62-3.42.68,1.26,1.3,2.32,1.82,3.42a1.49,1.49,0,0,0,1.48,1C53.37,48,54.63,48,56.14,48.11Z" transform="translate(-0.14 -0.24)"/><path class="cls-2" d="M73.32,55.26c-1.39-.62-2.6-1.21-3.85-1.68a1.72,1.72,0,0,0-1.28.09c-1.23.69-2.41,1.49-3.81,2.37.25-1.59.51-2.92.64-4.26a1.86,1.86,0,0,0-.44-1.32c-.89-.94-1.88-1.79-3-2.82,1.51-.34,2.8-.56,4-1A2.66,2.66,0,0,0,67,45.59c.66-1.16,1.17-2.41,1.82-3.81.72,1.34,1.27,2.5,2,3.57a1.88,1.88,0,0,0,1.18.75c1.29.16,2.6.18,4.16.28-1,1.15-1.9,2.17-2.84,3.1a1.93,1.93,0,0,0-.57,1.93C72.93,52.61,73.09,53.83,73.32,55.26Z" transform="translate(-0.14 -0.24)"/><path class="cls-2" d="M122.5,45.47c1,0,1.76,0,2.51,0a2.9,2.9,0,1,0,0-5.79,43.63,43.63,0,0,0-4.43,0,2,2,0,0,1-2.23-1.34,14.11,14.11,0,0,0-.85-1.52c3,0,5.91-.22,8.77.06a5.19,5.19,0,0,1,4.6,4.44,5.61,5.61,0,0,1-2.33,6c-.16.12-.33.23-.5.34l-.57.37c1.16,2,2.3,4,3.55,6.21-1.1,0-2,0-2.9,0a1.06,1.06,0,0,1-.74-.45C125.76,51.11,124.21,48.41,122.5,45.47Z" transform="translate(-0.14 -0.24)"/><path class="cls-2" d="M81.59,45.9c1.31-.3,2.41-.62,3.53-.8a2.39,2.39,0,0,0,2.1-1.64c.41-1.11,1-2.16,1.57-3.42.68,1.25,1.31,2.31,1.83,3.42a1.5,1.5,0,0,0,1.58,1c.88,0,1.75.08,3,.14-.32.8-.4,1.62-.85,2A3.9,3.9,0,0,0,93,51.26a13.9,13.9,0,0,1,.34,2.23c-1.32-.59-2.49-1.06-3.61-1.61a1.54,1.54,0,0,0-1.75.15c-1.08.74-2.21,1.41-3.55,2.26.23-1.5.4-2.74.63-4a1.7,1.7,0,0,0-.64-1.88C83.45,47.71,82.62,46.85,81.59,45.9Z" transform="translate(-0.14 -0.24)"/><path class="cls-2" d="M198.08,53.16c.5-1.48.84-2.71,1.32-3.87a1.59,1.59,0,0,0-.29-1.84c-.65-.8-1.84-1.65-1.08-2.73.36-.51,1.65-.48,2.52-.49a2.3,2.3,0,0,0,2.15-1.15c.65-1,1.43-2,2.29-3.15.39,1.23.78,2.23,1,3.26a1.9,1.9,0,0,0,1.81,1.69,34.47,34.47,0,0,1,3.48.81c-1.27,1-2.4,1.77-3.42,2.69a2.62,2.62,0,0,0-.78,1.57c-.12,1.22,0,2.46,0,4-1.23-.83-2.3-1.49-3.29-2.24a1.42,1.42,0,0,0-1.63-.17C200.89,52.08,199.62,52.55,198.08,53.16Z" transform="translate(-0.14 -0.24)"/><path class="cls-2" d="M127.8,233.72l-4,.29c-.51-6.87-1-13.67-1.52-20.62l4.23-.32C127,220,127.37,226.82,127.8,233.72Z" transform="translate(-0.14 -0.24)"/><path class="cls-2" d="M188.51,48.45c-1.1,0-2,.06-2.82,0a1.33,1.33,0,0,1-.82-.68c-.76-1.4-1.45-2.83-2.25-4.41-1,2-2,3.88-2.94,5.76-.67,1.32-1.39,2.61-2,4a1.67,1.67,0,0,1-2,1.21,14.6,14.6,0,0,0-1.91,0l8.79-17.54Z" transform="translate(-0.14 -0.24)"/><path class="cls-2" d="M101.56,54.25c3-5.91,5.84-11.64,8.81-17.54,2,4,3.9,7.76,5.9,11.74-1.11,0-2,.06-2.83,0a1.38,1.38,0,0,1-.82-.69c-.75-1.4-1.45-2.82-2.24-4.4l-3.32,6.52a17.06,17.06,0,0,0-1.26,2.58,2.38,2.38,0,0,1-3,1.83A7.43,7.43,0,0,0,101.56,54.25Z" transform="translate(-0.14 -0.24)"/><path class="cls-2" d="M136.23,46.79V44h11.63v2.8Z" transform="translate(-0.14 -0.24)"/><path class="cls-2" d="M147.87,51.3v2.88h-11.5a5.32,5.32,0,0,1,4.25-2.88Z" transform="translate(-0.14 -0.24)"/><path class="cls-2" d="M136.32,36.78h11.54v2.86c-2.89,0-5.71,0-8.53,0-.41,0-.83-.56-1.19-.91C137.55,38.11,137,37.49,136.32,36.78Z" transform="translate(-0.14 -0.24)"/><path class="cls-2" d="M154.44,191.18c2.52-.17,2.51-.17,3.25,2.09.84,2.58,1.69,5.15,2.54,7.73.13.4.22.82.33,1.22a2.43,2.43,0,0,1-.32.12c-2.13.06-2.13.07-2.8-2C156.45,197.36,155.47,194.33,154.44,191.18Z" transform="translate(-0.14 -0.24)"/><path class="cls-2" d="M114.66,51.42c2.89-.47,3.4-.15,4.32,2.69C116.16,54.65,115.25,54.09,114.66,51.42Z" transform="translate(-0.14 -0.24)"/><path class="cls-2" d="M186.84,51.4c3.07-.37,3.59,0,4.37,2.74C188.25,54.57,187.79,54.29,186.84,51.4Z" transform="translate(-0.14 -0.24)"/><path d="M52.73,260.25l21.37-6.4c1.52,4.66,3,9,4.46,13.61A364.07,364.07,0,0,0,13,285.89c2.22-8.6,4.39-17,6.58-25.55L.63,249.45c3.6-2.66,39-14.57,46.22-15.58Z" transform="translate(-0.14 -0.24)"/><path d="M280.29,285.89a357.27,357.27,0,0,0-65.64-18.43c1.4-4.3,2.79-8.54,4.26-13l22.24,5.87q2.7-13.05,5.46-26.41c15.91,3.53,31,9.3,46.18,15.44l-19.08,11C275.9,268.83,278.07,277.25,280.29,285.89Z" transform="translate(-0.14 -0.24)"/><path d="M239.7,199c-6.42,6.84-17.21,6.75-24.75,3C219.33,195.49,232.52,193.85,239.7,199Z" transform="translate(-0.14 -0.24)"/><path d="M79.78,202c-7.34,3.67-18.2,3.95-24.7-2.93C60.49,193.73,75.21,195.48,79.78,202Z" transform="translate(-0.14 -0.24)"/><path d="M180.93,79.82l-.54,11.52h-2.87c.23-5.43.44-10.76.67-16.15a25.71,25.71,0,0,1,2.93,0c.32,0,.69.47.87.82,1.73,3.24,3.42,6.5,5.13,9.75a3.21,3.21,0,0,0,.86,1.12l.68-11.33,2.92.19c-.33,5.4-.65,10.69-1,16.07a22.69,22.69,0,0,1-2.87,0c-.31,0-.64-.53-.83-.89-1.75-3.28-3.47-6.57-5.2-9.85C181.52,80.74,181.31,80.43,180.93,79.82Z" transform="translate(-0.14 -0.24)"/><path d="M159.85,74.38a8.36,8.36,0,1,1,0,16.71,8.44,8.44,0,0,1-8.71-8.46C151.15,77.87,154.85,74.38,159.85,74.38Zm0,2.84a5.49,5.49,0,0,0-5.76,5.45,5.64,5.64,0,0,0,5.7,5.59,5.52,5.52,0,1,0,.06-11Z" transform="translate(-0.14 -0.24)"/><path d="M40.75,170.52c9.21-1,16.42,4.2,18,11.24C51,181.92,42.93,178,40.75,170.52Z" transform="translate(-0.14 -0.24)"/><path d="M109.23,92c.34-1,.68-2,1-2.93,1.48-4.18,3-8.34,4.42-12.54.38-1.13,1.16-.94,1.94-1.1s1.11.3,1.41.93q3.36,7,6.75,13.9c.15.31.26.64.47,1.17-1,0-1.92,0-2.78,0a1.33,1.33,0,0,1-.84-.64,25.69,25.69,0,0,1-1.26-2.71,1.07,1.07,0,0,0-1.28-.76,17.5,17.5,0,0,1-3.23.17,2,2,0,0,0-2.43,1.9,2,2,0,0,1-.15.45C112.39,92.32,112.12,92.48,109.23,92Zm5.78-7.3,3.56-.26-2-4.75Z" transform="translate(-0.14 -0.24)"/><path d="M66.36,192.11c-7.63,3.6-16.73,2.74-21.44-2.69C51.57,185.36,61.06,185.92,66.36,192.11Z" transform="translate(-0.14 -0.24)"/><path d="M235.9,181.74c1.66-7.49,9.64-12.25,17.83-11.18C253.26,176.32,243.4,182.5,235.9,181.74Z" transform="translate(-0.14 -0.24)"/><path d="M249.85,189.44c-4.49,5.19-14.3,6.41-21.41,2.7C231.27,186.66,243.4,185.1,249.85,189.44Z" transform="translate(-0.14 -0.24)"/><path d="M94.15,80c.12,1.31.24,2.49.36,3.8l5.58-.43.22,2.77-5.54.54c.11,1.29.21,2.51.33,3.81l5.75-.46.28,2.79-8.65.77c-.5-5.38-1-10.69-1.52-16.17l8.85-.79.22,2.8Z" transform="translate(-0.14 -0.24)"/><path d="M142.41,78.9h-2.92c-.1-.19-.16-.58-.38-.71-.62-.35-1.33-.86-1.93-.78a2,2,0,0,0-1.36,1.34,2.45,2.45,0,0,0,1.08,1.73,16.36,16.36,0,0,0,2.67,1c2.83,1.18,3.88,3,3.29,5.73a5.18,5.18,0,0,1-5.54,4,5,5,0,0,1-4.86-4.67h2.84c.8,1.62,1.61,2.11,3.07,1.76a1.94,1.94,0,0,0,1.68-1.65A1.86,1.86,0,0,0,139,84.54c-.89-.43-1.86-.71-2.79-1.06a4.66,4.66,0,1,1,6.22-4.58Z" transform="translate(-0.14 -0.24)"/><path d="M81.66,82.68,78.85,83l.14-.34a10.13,10.13,0,0,0-2.36-1.06A1.41,1.41,0,0,0,75,82.9a1.49,1.49,0,0,0,1.06,1.79c.93.33,1.93.5,2.88.78,3,.88,4.23,2.59,3.93,5.41A5.07,5.07,0,0,1,78,95.32c-2.89.2-4.82-1.19-5.57-4.14l2.78-.4c1,1.65,1.85,2,3.28,1.6a1.94,1.94,0,0,0,1.54-1.78,1.88,1.88,0,0,0-1.23-2c-1-.36-2.08-.55-3.11-.84a4.57,4.57,0,0,1,.69-9c2.74-.21,4.61,1,5.26,3.49A2.34,2.34,0,0,1,81.66,82.68Z" transform="translate(-0.14 -0.24)"/><path d="M234.33,95.24c.23-1.5.49-2.79.61-4.09a2.13,2.13,0,0,0-.46-1.44c-.87-1-1.86-1.85-3-3a33.25,33.25,0,0,1,3.58-.52,2.12,2.12,0,0,0,2.13-1.53c.38-1,.93-1.94,1.53-3.17.63,1.22,1.21,2.23,1.67,3.29a2,2,0,0,0,2,1.39c1.14.06,2.27.31,3.71.52-1.12,1.08-2.11,1.94-3,2.92a2.4,2.4,0,0,0-.52,1.55c.1,1.27.37,2.52.62,4-1.33-.69-2.49-1.24-3.59-1.89a1.49,1.49,0,0,0-1.75,0C236.76,94,235.62,94.54,234.33,95.24Z" transform="translate(-0.14 -0.24)"/><path d="M50,95.24c.23-1.5.49-2.78.6-4.08a2.18,2.18,0,0,0-.44-1.44c-.81-1-1.75-1.82-2.63-2.71l.1-.36c1.15-.17,2.3-.37,3.46-.49a1.66,1.66,0,0,0,1.54-1.07c.49-1.13,1.07-2.22,1.73-3.56.69,1.32,1.21,2.5,1.9,3.57a2.53,2.53,0,0,0,1.42,1c1.22.29,2.48.39,4,.6-1.08,1-2,2-2.9,2.81a1.73,1.73,0,0,0-.58,1.8c.22,1.21.4,2.43.64,3.92-1.33-.7-2.49-1.25-3.59-1.9a1.49,1.49,0,0,0-1.75,0C52.44,94,51.3,94.54,50,95.24Z" transform="translate(-0.14 -0.24)"/><path d="M217.64,108.11c5.61-.51,11.11,3.94,12.87,8.86C225.64,118.3,218.18,113.17,217.64,108.11Z" transform="translate(-0.14 -0.24)"/><path d="M77.09,108.12a12.13,12.13,0,0,1-12.85,8.93C65.65,112.35,71.42,107.54,77.09,108.12Z" transform="translate(-0.14 -0.24)"/><path d="M220.28,94.54l-2.84-.32c.46-4.52.92-9,1.38-13.49l-2-.37c.06-.82.13-1.6.2-2.49l5.06.52C221.45,83.82,220.87,89.12,220.28,94.54Z" transform="translate(-0.14 -0.24)"/><path d="M237.94,124.27c-4.37-2.34-6.34-7.55-4.46-11.67C237.21,114.2,239.54,120.24,237.94,124.27Z" transform="translate(-0.14 -0.24)"/><path d="M61.24,112.58c1.67,4.67-.29,9.73-4.45,11.63C55.37,120.7,57,114.66,61.24,112.58Z" transform="translate(-0.14 -0.24)"/><path d="M212.81,20.42l10.14.85c.17,3.64-3.29,7-7.45,7.25A8.33,8.33,0,0,1,206.35,21a8.21,8.21,0,0,1,7.54-8.66c3.81-.38,8.12,2.42,8.47,5.56-.88-.06-1.76-.06-2.61-.2a2,2,0,0,1-1-.67,5.44,5.44,0,0,0-6.52-1.41,5.7,5.7,0,0,0-2.9,6,5.64,5.64,0,0,0,9.8,2l-6.49-.56Z" transform="translate(-0.14 -0.24)"/><path d="M55.37,30.91,53.61,15.16l2.82-.32.8,7,6.28-.64-.67-7,2.83-.31c.52,5.31,1,10.5,1.53,15.77l-2.76.28-.66-6-6.25.64.6,6Z" transform="translate(-0.14 -0.24)"/><path d="M139.6,10h2.69v6.91h6.4V9.94h2.78v15.7h-2.75V19.75h-6.28v5.92H139.6Z" transform="translate(-0.14 -0.24)"/><path d="M203.14,27.51c-1-.06-1.83-.08-2.69-.18-.22,0-.41-.29-.6-.46s0-.15-.07-.22c-.45-1.14-.62-2.95-1.41-3.28-1.46-.62-3.28-.41-5-.47-.25,0-.59.35-.74.61a10.71,10.71,0,0,0-1,2,1.62,1.62,0,0,1-2.17,1.21,11.12,11.12,0,0,0-1.54-.14c.13-.35.2-.64.33-.91,2.16-4.54,4.36-9.06,6.45-13.63.44-1,1.08-.82,1.83-.84s1.09.29,1.33,1c1.62,4.76,3.29,9.5,4.94,14.25C202.94,26.79,203,27.09,203.14,27.51Zm-5.58-7.12c-.48-1.71-.9-3.18-1.41-5-.72,1.75-1.31,3.19-2,4.73Z" transform="translate(-0.14 -0.24)"/><path d="M227.18,13.55l2.85.24c-.2,2.15-.4,4.24-.59,6.33-.13,1.39-.31,2.78-.36,4.18-.08,1.93.72,2.83,2.49,3,1.55.13,2.53-.76,2.76-2.64.29-2.42.51-4.85.76-7.28.09-1,.2-1.89.32-3l2.79.26c-.08.92-.15,1.77-.24,2.63-.31,2.78-.52,5.57-1,8.33-.53,3.24-2.72,4.74-6,4.4a4.93,4.93,0,0,1-4.69-5.48C226.42,20.88,226.85,17.27,227.18,13.55Z" transform="translate(-0.14 -0.24)"/><path d="M184.67,10.4l-.14,2.7H179v4.36l5.15.26L184,20.31h-5.22v3.37l5.23.24v2.53h-8.31c.18-5.51.35-10.84.51-16Z" transform="translate(-0.14 -0.24)"/><path d="M251.56,16c-.13,1-.23,1.82-.34,2.7l-5.53-.62-.53,4.41,5.27.67-.29,2.67-5.26-.57-.44,3.4,5.49.71c-.11.86-.2,1.67-.32,2.66l-8.26-.93c.59-5.35,1.18-10.63,1.79-16.06Z" transform="translate(-0.14 -0.24)"/><path d="M70.38,13.28l8.4-.73.28,2.7-5.56.51c.12,1.48.23,2.86.36,4.42l5.33-.39.19,2.67L74.14,23l.27,3.42,5.4-.42a1.71,1.71,0,0,1,.15.4c.33,2.27.33,2.27-1.92,2.46l-6.18.55C71.36,24,70.88,18.69,70.38,13.28Z" transform="translate(-0.14 -0.24)"/><path d="M128.36,20v5.93l-2.72.13c-.15-5.33-.31-10.58-.46-15.92,2.35,0,4.61,0,6.86,0a3,3,0,0,1,1.31.55c1.59,1,2.32,3.26,1.84,5.58a4,4,0,0,1-3.75,3.45C130.46,19.85,129.46,19.89,128.36,20Zm-.1-7.2v4.3c3.11.18,4.28-.5,4.2-2.33S131.21,12.44,128.26,12.78Z" transform="translate(-0.14 -0.24)"/><path d="M100.72,15.45c-.78.05-1.56.12-2.34.12a.78.78,0,0,1-.58-.42c-.31-.76-.82-1.29-1.63-1a1.89,1.89,0,0,0-1,1.13,1.51,1.51,0,0,0,.89,1.89c1,.44,2,.76,3,1.21a4.2,4.2,0,0,1,2.57,4.45,4.82,4.82,0,0,1-4.51,4.61,4.65,4.65,0,0,1-4.88-4.36l2.7-.21a1.73,1.73,0,0,1,.21.33A1.74,1.74,0,0,0,97,24.7a1.69,1.69,0,0,0,1.68-1.44,2,2,0,0,0-1-2.35c-.88-.46-1.85-.74-2.75-1.16a4.39,4.39,0,0,1-2.14-6.22,4.21,4.21,0,0,1,7.94,1.92Z" transform="translate(-0.14 -0.24)"/><path d="M50.55,18.06l-2.91.4c.51,4.4,1,8.7,1.54,13.13L46.41,32,44.78,18.82l-2.91.27-.32-2.67,8.67-1.06Z" transform="translate(-0.14 -0.24)"/><path d="M164.43,26.06V10.13h2.81v13.2l4.65.21-.11,2.52Z" transform="translate(-0.14 -0.24)"/><path d="M116.88,23.66h4.76v2.72h-7.46q-.32-7.72-.64-15.76h2.85C116.55,14.94,116.72,19.27,116.88,23.66Z" transform="translate(-0.14 -0.24)"/><path d="M105.33,11l2.85-.17c.24,5.28.49,10.48.74,15.82l-2.79.19Z" transform="translate(-0.14 -0.24)"/><path d="M145.8,258.37a30.71,30.71,0,0,1,0,3.46,3.93,3.93,0,0,1-4.2,3.6c-2.75.06-4.63-1.1-4.86-3.39a37.14,37.14,0,0,1,0-7.15c.22-2.43,2.13-3.59,5-3.45a4,4,0,0,1,4.13,3.81c.09,1,0,2.08,0,3.12Zm-2.67.1c-.06-1-.06-2-.17-3a1.65,1.65,0,0,0-1.62-1.63,1.62,1.62,0,0,0-1.84,1.53,53.62,53.62,0,0,0,0,6.08,1.59,1.59,0,0,0,1.75,1.48,1.64,1.64,0,0,0,1.65-1.6C143.06,260.39,143.07,259.39,143.13,258.47Z" transform="translate(-0.14 -0.24)"/><path d="M129.21,262.72h4.93v2.4h-8.89c-.19-1.32-.18-2.44,1-3.39a37.75,37.75,0,0,0,3.57-3.36,7,7,0,0,0,1.34-1.81,1.92,1.92,0,0,0-1-2.59c-.86-.33-1.78.25-2.16,1.37-.12.33-.19.68-.3,1.09h-2.58a4.39,4.39,0,0,1,1.41-4,5.15,5.15,0,0,1,6.31.08,4.63,4.63,0,0,1,.51,6.11,26.82,26.82,0,0,1-2.41,2.48C130.5,261.58,130,262,129.21,262.72Z" transform="translate(-0.14 -0.24)"/><path d="M160.85,265.19l3-4.49a4.07,4.07,0,0,1-3.62-1.67,5.22,5.22,0,0,1-.62-4c.56-2.68,2.91-4,5.91-3.46a4.57,4.57,0,0,1,3.49,5.55,9.14,9.14,0,0,1-1.16,2.73c-.86,1.44-1.9,2.78-2.74,4.22a2,2,0,0,1-2.21,1.17A16.38,16.38,0,0,0,160.85,265.19Zm5.36-9.15a2.17,2.17,0,0,0-2.1-2.16,2.09,2.09,0,0,0-1.8,2.16,2.13,2.13,0,0,0,2,2.23A2.18,2.18,0,0,0,166.21,256Z" transform="translate(-0.14 -0.24)"/><path d="M154.68,265.12H152V254.24l-1.58-.16v-2.3h4.3Z" transform="translate(-0.14 -0.24)"/><path d="M143.36,215.74a7.09,7.09,0,1,1-.06,14.17,7.29,7.29,0,0,1-7.33-7.16A7.08,7.08,0,0,1,143.36,215.74Z" transform="translate(-0.14 -0.24)"/><path d="M63.58,226.53c1.6-.24,3.07-.55,4.56-.65a2.33,2.33,0,0,1,2.46,1.86c.43,1.4.17,2.65-1,3.26a45.25,45.25,0,0,1-4.44,1.72Z" transform="translate(-0.14 -0.24)"/><path d="M194.18,227.42l-4.52-.6,3.05-5.75Z" transform="translate(-0.14 -0.24)"/><path class="cls-2" d="M159.82,77.22a5.52,5.52,0,1,1-.06,11,5.64,5.64,0,0,1-5.7-5.59A5.49,5.49,0,0,1,159.82,77.22Z" transform="translate(-0.14 -0.24)"/><path class="cls-2" d="M115,84.74l1.52-5,2,4.75Z" transform="translate(-0.14 -0.24)"/><path class="cls-2" d="M197.56,20.39l-3.36-.24c.64-1.54,1.23-3,2-4.73C196.66,17.21,197.08,18.68,197.56,20.39Z" transform="translate(-0.14 -0.24)"/><path class="cls-2" d="M128.26,12.78c3-.34,4.12.22,4.2,2s-1.09,2.51-4.2,2.33Z" transform="translate(-0.14 -0.24)"/><path class="cls-2" d="M143.13,258.47c-.06.92-.07,1.92-.19,2.91a1.64,1.64,0,0,1-1.65,1.6,1.59,1.59,0,0,1-1.75-1.48,53.62,53.62,0,0,1,0-6.08,1.62,1.62,0,0,1,1.84-1.53,1.65,1.65,0,0,1,1.62,1.63C143.07,256.47,143.07,257.43,143.13,258.47Z" transform="translate(-0.14 -0.24)"/><path class="cls-2" d="M166.21,256a2.18,2.18,0,0,1-1.9,2.23,2.13,2.13,0,0,1-2-2.23,2.09,2.09,0,0,1,1.8-2.16A2.17,2.17,0,0,1,166.21,256Z" transform="translate(-0.14 -0.24)"/></g></svg>